<?xml version="1.0" encoding="UTF-8"?>
<svg version="1.1" xmlns="http://www.w3.org/2000/svg">
<path d="M0 0 C12.31789629 10.82201983 22.36709652 23.75478374 27.125 39.6875 C27.125 40.6775 27.125 41.6675 27.125 42.6875 C27.71531006 42.7687915 28.30562012 42.85008301 28.91381836 42.93383789 C38.13544644 44.3939649 46.83929641 47.22751066 55.6875 50.125 C56.50246948 50.39038574 57.31743896 50.65577148 58.15710449 50.92919922 C72.85123657 55.73414092 87.07010719 61.22355926 101.125 67.6875 C102.1651123 68.16155273 103.20522461 68.63560547 104.27685547 69.12402344 C134.60024429 83.02940345 162.83193527 100.13927334 189.125 120.6875 C190.02863281 121.39003906 190.93226563 122.09257812 191.86328125 122.81640625 C207.26486861 134.97555416 221.60531307 148.09601545 235.5 161.9375 C236.3444165 162.77724365 237.18883301 163.6169873 238.05883789 164.48217773 C242.95404569 169.3899933 247.62674417 174.4148718 252.125 179.6875 C252.970625 180.65171875 253.81625 181.6159375 254.6875 182.609375 C274.6441131 205.76416327 292.20955762 231.44708378 306.82080078 258.29345703 C308.07141309 260.58913361 309.34484948 262.87084895 310.62109375 265.15234375 C333.52530439 306.70334095 347.75493619 353.04404759 355.5625 399.6875 C355.68260437 400.40251678 355.80270874 401.11753357 355.92645264 401.85421753 C356.74262186 406.78818852 357.45882873 411.73121387 358.125 416.6875 C358.22318024 417.38464111 358.32136047 418.08178223 358.42251587 418.80004883 C360.6281328 434.9334522 360.46625752 451.17117389 360.44067383 467.41992188 C360.43605868 470.58412961 360.4429168 473.74795147 360.46118164 476.91210938 C360.60875866 502.75435987 359.17456734 527.98324429 354.3125 553.4375 C354.18494324 554.11886017 354.05738647 554.80022034 353.92596436 555.50222778 C351.51486375 568.36717438 348.6618845 581.08275732 345.125 593.6875 C344.83931152 594.7079541 344.55362305 595.7284082 344.25927734 596.77978516 C327.16793601 656.86263663 297.02059367 711.8081278 257.125 759.6875 C255.8728772 761.19715332 255.8728772 761.19715332 254.59545898 762.73730469 C247.32803818 771.40784504 239.60237429 779.52157867 231.5793457 787.49389648 C229.55377518 789.50867835 227.53921616 791.53403275 225.52539062 793.56054688 C218.36040246 800.73282026 211.09642806 807.41320919 203.125 813.6875 C202.0226462 814.62165961 200.92634231 815.56307109 199.83984375 816.515625 C158.35887097 852.6875 158.35887097 852.6875 147.125 852.6875 C156.7829173 872.54321817 167.54856491 891.83165746 178.1328125 911.203125 C182.94062407 920.00741013 187.70963472 928.83276202 192.48388672 937.65527344 C195.19622137 942.66675758 197.91068626 947.67708758 200.625 952.6875 C203.88779053 958.710358 207.15011518 964.73346574 210.41015625 970.7578125 C216.09318403 981.25775399 221.79200934 991.74866983 227.51782227 1002.2253418 C230.31016553 1007.34102534 233.08691812 1012.46485005 235.84765625 1017.59765625 C236.16250473 1018.18301147 236.47735321 1018.7683667 236.80174255 1019.37145996 C238.33818038 1022.228999 239.87293649 1025.0874296 241.40600586 1027.94677734 C244.88597124 1034.42783912 244.88597124 1034.42783912 248.53125 1040.81640625 C250.125 1043.6875 250.125 1043.6875 250.125 1045.6875 C245.71095699 1044.33793617 241.81289649 1042.59811063 237.75 1040.4140625 C237.15257996 1040.09447571 236.55515991 1039.77488892 235.93963623 1039.44561768 C233.99891631 1038.40584108 232.06193136 1037.35931454 230.125 1036.3125 C228.76743287 1035.58316045 227.40968353 1034.85415998 226.05175781 1034.12548828 C217.43164819 1029.49445966 208.83288827 1024.82399231 200.24951172 1020.12524414 C193.26617015 1016.30262761 186.26168286 1012.52035525 179.25 1008.75 C169.88040816 1003.71173878 160.5206826 998.65578972 151.16894531 993.58447266 C143.78717067 989.58328413 136.39505265 985.60158492 129 981.625 C120.13226053 976.85570749 111.28305138 972.05409613 102.44824219 967.22412109 C94.2962793 962.77157839 86.11837127 958.36789776 77.9375 953.96875 C69.67388691 949.5243718 61.421331 945.05996008 53.17333984 940.58666992 C47.96902373 937.76549084 42.76100062 934.95145101 37.546875 932.1484375 C36.44537109 931.55546875 35.34386719 930.9625 34.20898438 930.3515625 C31.99983336 929.16610126 29.78761638 927.98633458 27.57226562 926.8125 C22.50166121 924.1138761 17.52592224 921.36257806 12.671875 918.2890625 C1.80731617 911.51037382 -4.75716392 909.55061968 -17.26025391 912.171875 C-55.63103932 919.73855089 -99.33974429 918.43803462 -137.875 912.6875 C-139.07785645 912.51057617 -140.28071289 912.33365234 -141.52001953 912.15136719 C-185.48045581 905.4943533 -227.69315637 892.74886027 -267.875 873.6875 C-269.04361572 873.14005127 -269.04361572 873.14005127 -270.23583984 872.58154297 C-291.41355811 862.60143959 -311.9840245 850.53024017 -330.875 836.6875 C-331.55095215 836.19266113 -332.2269043 835.69782227 -332.92333984 835.18798828 C-353.79015727 819.83950912 -373.78814977 803.26613769 -391.875 784.6875 C-389.337565 781.83992203 -386.47604225 780.14172623 -383.1875 778.23828125 C-382.33907532 777.74427071 -382.33907532 777.74427071 -381.47351074 777.24028015 C-380.25052917 776.52884092 -379.02632026 775.8195082 -377.80102539 775.11206055 C-375.17349092 773.59495831 -372.5518502 772.06780074 -369.92980957 770.54122925 C-368.57358547 769.75174843 -367.21705539 768.96279302 -365.86022949 768.17434692 C-359.34161359 764.38478343 -352.85627151 760.54060386 -346.375 756.6875 C-333.45624746 749.01835037 -320.49811751 741.41764962 -307.53222656 733.82861328 C-302.08127216 730.63783287 -296.6327857 727.4428427 -291.18411255 724.24816895 C-289.3766274 723.18845413 -287.56906532 722.12887068 -285.76147461 721.06933594 C-280.27698854 717.85454937 -274.79270018 714.6394271 -269.30917358 711.42300415 C-256.53486363 703.93012006 -243.75546149 696.44627459 -230.96044922 688.98876953 C-219.48841025 682.3000712 -208.0350251 675.5795788 -196.58056641 668.86083984 C-191.11515517 665.65515731 -185.64877869 662.45112141 -180.1824646 659.24697876 C-177.16326922 657.47722162 -174.14413789 655.70735522 -171.125 653.9375 C-169.91666697 653.22916614 -168.70833364 652.52083281 -167.5 651.8125 C-166.901875 651.461875 -166.30375 651.11125 -165.6875 650.75 C-163.875 649.6875 -162.0625 648.625 -160.25 647.5625 C-159.65198074 647.21193542 -159.05396149 646.86137085 -158.43782043 646.50018311 C-157.22842449 645.79123002 -156.01902304 645.08228635 -154.80961609 644.37335205 C-151.80499554 642.61207764 -148.8004683 640.85064446 -145.79614258 639.08886719 C-140.16559682 635.78726521 -134.53412544 632.48727248 -128.89950562 629.19262695 C-126.25605845 627.64683861 -123.61311818 626.10018473 -120.97021484 624.5534668 C-119.71770022 623.8207762 -118.46494104 623.08850349 -117.21191406 622.35668945 C-109.12727868 617.63933948 -109.12727868 617.63933948 -101.17578125 612.703125 C-97.875 610.6875 -97.875 610.6875 -95.875 610.6875 C-95.90980469 610.13964844 -95.94460938 609.59179688 -95.98046875 609.02734375 C-96.70606171 587.77783576 -87.74910307 568.84751347 -74.1875 553 C-59.54906307 537.44245754 -39.4229107 528.70661638 -18.21655273 527.71118164 C1.83702901 527.19792309 22.49911193 533.35658207 37.4375 547.0625 C39.36917678 548.90618892 41.2468584 550.7877395 43.125 552.6875 C43.86621094 553.41839844 44.60742188 554.14929688 45.37109375 554.90234375 C59.59257701 569.78915956 66.23573221 590.34892735 66.15625 610.69140625 C65.33568621 631.67732513 58.45093491 650.12838022 44.125 665.6875 C43.31675781 666.63302734 43.31675781 666.63302734 42.4921875 667.59765625 C29.88065658 681.50836498 9.29950602 690.0239039 -9.1953125 691.07421875 C-26.4149706 691.62171248 -40.47756531 688.61123528 -55.58203125 680.39453125 C-59.10486664 678.52089967 -59.10486664 678.52089967 -62.875 677.6875 C-65.17000986 678.56386258 -65.17000986 678.56386258 -67.49609375 680.0546875 C-68.41664551 680.6019751 -69.33719727 681.1492627 -70.28564453 681.71313477 C-71.28450684 682.32342529 -72.28336914 682.93371582 -73.3125 683.5625 C-75.48548832 684.86099302 -77.65867409 686.15915566 -79.83203125 687.45703125 C-80.99051602 688.15426214 -82.14887995 688.85169384 -83.30712891 689.54931641 C-88.72577966 692.80564814 -94.19120509 695.98226913 -99.65066528 699.16949463 C-109.61962143 704.9940274 -119.56420709 710.85991317 -129.49975586 716.74121094 C-137.62451981 721.54743021 -145.77076839 726.31671955 -153.91732788 731.08584595 C-162.85761331 736.32071404 -171.77928581 741.58572774 -180.6875 746.875 C-190.96833762 752.97797031 -201.28130609 759.02317013 -211.61328125 765.0390625 C-236.83165956 779.71555489 -236.83165956 779.71555489 -261.875 794.6875 C-254.17110861 799.576508 -246.16218575 803.68304753 -237.96630859 807.6640625 C-235.98512906 808.63360541 -234.01755764 809.62664665 -232.05078125 810.625 C-170.56579574 841.29769396 -94.56693669 851.23096277 -26.875 840.6875 C-25.75818848 840.52121094 -24.64137695 840.35492187 -23.49072266 840.18359375 C14.54243536 834.40559253 50.64848513 822.6495499 85.125 805.6875 C85.97852051 805.27032715 86.83204102 804.8531543 87.71142578 804.42333984 C107.71533118 794.55269939 126.63700348 782.52056947 144.125 768.6875 C145.46304687 767.64916016 145.46304687 767.64916016 146.828125 766.58984375 C168.62065344 749.47216415 188.93912943 730.46852313 206.125 708.6875 C206.96915573 707.64640798 207.81425173 706.60607785 208.66015625 705.56640625 C231.96064583 676.71232219 250.16542946 643.97361315 264.125 609.6875 C264.44807129 608.8948877 264.77114258 608.10227539 265.10400391 607.28564453 C280.0836606 569.95234548 289.14475391 527.75735741 289.328125 487.4765625 C289.33518463 486.43851471 289.34224426 485.40046692 289.34951782 484.33096313 C289.82703513 393.41014137 263.82629255 306.31507401 204.83886719 235.76611328 C203.61296936 234.27931925 202.40746087 232.77561971 201.21582031 231.26123047 C195.30140485 223.81299357 188.83012282 217.08511863 182.08740234 210.38916016 C180.25252731 208.56501253 178.42860668 206.73040127 176.60546875 204.89453125 C169.75222659 198.03318484 162.76032731 191.67930667 155.125 185.6875 C153.90478414 184.68695992 152.68698419 183.68345919 151.47265625 182.67578125 C112.30559888 150.60705582 66.99742254 128.60183993 18.58569336 114.45263672 C16.125 113.6875 16.125 113.6875 14.125 112.6875 C13.85429688 113.27144531 13.58359375 113.85539063 13.3046875 114.45703125 C5.72837874 128.78177398 -11.86846823 137.88576614 -26.64453125 143.07421875 C-48.22496058 149.40833035 -70.58606733 146.43350113 -90.171875 135.83203125 C-110.11176207 124.54539939 -122.76895183 107.2344238 -129.25 85.375 C-133.21535513 69.46433264 -132.09437739 52.12891061 -126.875 36.6875 C-126.57464844 35.76066406 -126.27429688 34.83382812 -125.96484375 33.87890625 C-119.08690429 14.79336861 -103.1044466 -0.87590576 -85.08642578 -9.57714844 C-57.43818703 -22.28471663 -24.05098525 -18.90204193 0 0 Z M-68.08203125 45.875 C-73.15877178 51.00704271 -75.57728404 57.23399492 -76.1875 64.3125 C-76.0584814 71.24079881 -73.36243564 77.48530246 -68.6875 82.5625 C-62.50228565 88.11737404 -55.96240452 90.48954131 -47.64453125 90.12890625 C-40.01005311 88.91212765 -34.05290737 84.91819556 -29.28515625 78.921875 C-25.55119115 73.00545384 -24.16600517 66.75783414 -25.30078125 59.8515625 C-27.3401049 52.16594821 -31.45819898 47.34501191 -37.6875 42.5 C-48.25346929 36.49189982 -58.84393333 38.49927312 -68.08203125 45.875 Z M-34.4375 592.71875 C-39.6397777 599.84360859 -41.17695792 606.92783575 -39.875 615.6875 C-37.15966225 624.23000061 -32.22306777 629.17899936 -24.625 633.5625 C-17.58411109 635.67476667 -10.44363715 635.63612137 -3.65234375 632.6640625 C2.63571359 629.20908594 6.44630366 624.38063194 9.375 617.9375 C11.28756326 609.64972589 10.57717337 602.04378646 6.125 594.6875 C0.93417535 588.4606248 -4.85837173 584.96166608 -12.875 583.6875 C-21.0944374 583.15258423 -29.02067379 586.57273564 -34.4375 592.71875 Z " fill="#FF6015" transform="translate(517.875,16.3125)"/>
<path d="M0 0 C-0.144375 0.87398437 -0.28875 1.74796875 -0.4375 2.6484375 C-4.11937568 27.0408639 -0.80412261 48.05942612 8 71 C3.28634537 72.81787422 -1.45127079 74.50144206 -6.24609375 76.09375 C-55.7723283 92.5978854 -101.30031924 117.60719421 -139.86328125 153.046875 C-141.76912347 154.78896113 -143.71503302 156.45954813 -145.6875 158.125 C-149.81590372 161.72260896 -153.68425755 165.5748899 -157.5625 169.4375 C-158.18793701 170.05834473 -158.81337402 170.67918945 -159.45776367 171.31884766 C-163.83971128 175.71518495 -167.97230752 180.27809613 -172 185 C-172.54503174 185.63832764 -173.09006348 186.27665527 -173.65161133 186.93432617 C-229.43827689 252.78538197 -265.02447402 339.9476173 -263 427 C-262.41025391 426.64510498 -261.82050781 426.29020996 -261.21289062 425.92456055 C-244.21609413 415.70083813 -227.17311334 405.55669603 -210.11279297 395.43945312 C-204.07143465 391.85650238 -198.03225939 388.26987527 -191.99295044 384.68347168 C-188.66205939 382.70549212 -185.33102219 380.72775871 -182 378.75 C-180.66666597 377.95833451 -179.33333264 377.16666784 -178 376.375 C-169.99999984 371.6249999 -169.99999984 371.6249999 -168.00007629 370.43754578 C-166.66648809 369.64572746 -165.33290044 368.85390821 -163.99931335 368.06208801 C-160.66988413 366.08523385 -157.34044526 364.10839593 -154.01098633 362.1315918 C-147.28184844 358.13626749 -140.55288088 354.14065675 -133.82421875 350.14453125 C-126.52926925 345.8121564 -119.23380117 341.48065592 -111.93774414 337.15014648 C-110.63938586 336.37950697 -109.3410462 335.60883608 -108.04272461 334.83813477 C-104.26146025 332.59355509 -100.47983679 330.34958273 -96.69766235 328.10653687 C-94.99378239 327.09588379 -93.29022069 326.0846942 -91.58666992 325.07348633 C-86.41414027 322.00686028 -81.23330522 318.96182806 -76 316 C-76.03480469 315.030625 -76.06960938 314.06125 -76.10546875 313.0625 C-76.70066485 289.20355335 -69.9093528 268.06853299 -53.39086914 250.35009766 C-38.324534 234.81428769 -18.7153285 226.17389416 2.86547852 225.52905273 C24.46999843 225.32880833 43.85297543 231.18439675 60 246 C60.75539063 246.66386719 61.51078125 247.32773437 62.2890625 248.01171875 C76.54785527 261.26602612 85.46686931 280.72938031 86.3359375 300.19140625 C86.76068139 325.20974501 80.02624807 346.26258599 62.44140625 364.6796875 C46.44135751 379.95985016 26.48675304 387.84268914 4.5 388.375 C-9.0227621 388.04760681 -21.86601668 385.06699166 -34 379 C-36.63188469 380.22429083 -36.63188469 380.22429083 -39.625 382.05859375 C-40.19462967 382.39350327 -40.76425934 382.72841278 -41.35115051 383.07347107 C-43.23901938 384.18672284 -45.11950646 385.31184145 -47 386.4375 C-48.32224267 387.22131663 -49.64475595 388.00467693 -50.9675293 388.78759766 C-60.36013966 394.36149253 -69.67091639 400.06599577 -78.95263672 405.82250977 C-87.77855744 411.2849304 -96.68989625 416.5936931 -105.625 421.875 C-114.04001435 426.84938433 -122.44259122 431.82607005 -130.68994141 437.07568359 C-138.02932436 441.71056234 -145.52919128 446.08173333 -153 450.5 C-165.13902759 457.65535956 -165.13902759 457.65535956 -177.125 465.0625 C-184.42183774 469.69255161 -191.83485601 474.12567023 -199.25 478.5625 C-209.39554917 484.63328854 -219.52403516 490.730287 -229.625 496.875 C-237.4032219 501.60593591 -245.18782454 506.32526382 -253 511 C-260.8906311 515.72425409 -268.76219729 520.479607 -276.625 525.25 C-277.2112616 525.60544891 -277.79752319 525.96089783 -278.40155029 526.32711792 C-285.12039512 530.40200389 -291.8233561 534.50081856 -298.5 538.64453125 C-299.10339203 539.01840973 -299.70678406 539.39228821 -300.32846069 539.77749634 C-303.22323998 541.57120117 -306.11514607 543.36904502 -309.00244141 545.17480469 C-310.02515137 545.8093457 -311.04786133 546.44388672 -312.1015625 547.09765625 C-313.00213379 547.65976807 -313.90270508 548.22187988 -314.83056641 548.80102539 C-317 550 -317 550 -319 550 C-328.73127626 510.37046361 -334.63257531 471.25043705 -334.4375 430.375 C-334.43448813 429.01711077 -334.4317551 427.6592209 -334.42929077 426.30133057 C-334.37544794 404.96579527 -333.37606514 384.07700048 -330 363 C-329.81276367 361.76926758 -329.62552734 360.53853516 -329.43261719 359.27050781 C-323.48202959 320.65849123 -312.19383842 282.57460539 -296 247 C-295.51450684 245.93023926 -295.02901367 244.86047852 -294.52880859 243.75830078 C-278.22215757 208.16753075 -257.23330787 174.94862297 -232 145 C-231.5678418 144.4829248 -231.13568359 143.96584961 -230.69042969 143.43310547 C-218.14852546 128.44734183 -204.93439937 113.52583129 -190.07421875 100.796875 C-187.79842282 98.8253757 -185.59077333 96.78865605 -183.375 94.75 C-177.7174035 89.64689994 -171.75419829 84.98591373 -165.72314453 80.33789062 C-164.15600887 79.12112901 -162.60626487 77.88205044 -161.05859375 76.640625 C-117.55512466 42.1159012 -66.63028461 18.3937032 -13.61279297 2.77001953 C-12.0206081 2.30078471 -10.43046949 1.82443238 -8.84423828 1.33544922 C-5.67778763 0.37518042 -3.3709397 0 0 0 Z M-12 288 C-18.02780322 294.46788619 -20.47138034 300.64128307 -20.24609375 309.48046875 C-19.54263875 316.68250803 -16.29879623 322.14482392 -11 327 C-4.31916742 331.77202327 1.973066 332.65377743 10 332 C17.05171018 330.51144579 22.37563827 326.6582012 26.546875 320.84375 C30.44176737 314.10427332 31.05768247 307.65840453 30 300 C27.66843819 292.28600294 22.00620393 286.762591 15 283 C4.66019088 279.90757243 -3.59034593 281.10199862 -12 288 Z " fill="#FF7A13" transform="translate(334,59)"/>
<path d="M0 0 C12.12680117 9.96834324 20.68117523 22.01546173 26.35351562 36.72216797 C26.97419922 38.32511719 26.97419922 38.32511719 27.60742188 39.96044922 C34.16511535 60.13621 31.7624809 83.21479469 22.60351562 102.09716797 C19.24443249 108.61525856 15.33067513 114.31261198 10.35351562 119.72216797 C9.60457031 120.56263672 8.855625 121.40310547 8.08398438 122.26904297 C-5.7344339 137.00273612 -25.5375789 145.53929118 -45.64648438 146.72216797 C-46.32710937 146.76341797 -47.00773438 146.80466797 -47.70898438 146.84716797 C-63.40427423 147.30879414 -79.10516949 143.17955999 -92.27929688 134.66357422 C-94.60551012 133.44977603 -94.60551012 133.44977603 -96.88793945 134.42871094 C-100.09194034 135.93103829 -103.12000177 137.65705344 -106.15039062 139.47607422 C-106.77716705 139.84857803 -107.40394348 140.22108185 -108.04971313 140.60487366 C-110.10498438 141.82785318 -112.15701904 143.05615108 -114.20898438 144.28466797 C-115.65263324 145.14537925 -117.09640115 146.00589089 -118.5402832 146.86621094 C-128.24371992 152.65494171 -137.90559893 158.51050485 -147.55130005 164.39480591 C-156.96321795 170.13394294 -166.45018846 175.73456935 -175.9730835 181.28723145 C-184.85640748 186.46959126 -193.67963748 191.74064168 -202.45898438 197.09716797 C-212.40059029 203.1614423 -222.37901819 209.15898159 -232.39648438 215.09716797 C-233.06197296 215.49174194 -233.72746155 215.88631592 -234.41311646 216.29284668 C-239.83659741 219.50786555 -245.26224284 222.71922473 -250.68798828 225.93041992 C-255.42516487 228.73429795 -260.16142755 231.53971157 -264.89648438 234.34716797 C-265.56157013 234.74141968 -266.22665588 235.13567139 -266.91189575 235.54187012 C-276.83563721 241.42731972 -286.70955589 247.39022581 -296.55871582 253.3994751 C-305.96817394 259.13702279 -315.45271807 264.73604433 -324.9730835 270.28723145 C-334.43852992 275.80919026 -343.82999226 281.44160414 -353.18408203 287.14990234 C-363.30324192 293.32353133 -373.48217615 299.39114399 -383.68365479 305.4276123 C-393.10605017 311.00486498 -402.48758397 316.64356218 -411.83398438 322.34716797 C-421.81581952 328.43806681 -431.86793825 334.39621406 -441.97006226 340.28521729 C-450.92007446 345.5050207 -459.80421223 350.82200401 -468.64648438 356.22216797 C-478.68394494 362.35225896 -488.78887629 368.35280903 -498.95111084 374.27359009 C-509.4469966 380.39153469 -519.84822915 386.6551966 -530.19921875 393.01513672 C-536.9121981 397.12397764 -543.69545424 401.0294875 -550.64648438 404.72216797 C-555.48014532 398.7315185 -559.81641637 392.59828948 -563.83398438 386.03466797 C-564.38715332 385.13546631 -564.94032227 384.23626465 -565.51025391 383.30981445 C-571.59458103 373.31709817 -577.20049284 363.0740527 -582.64648438 352.72216797 C-583.0419043 351.97128906 -583.43732422 351.22041016 -583.84472656 350.44677734 C-589.64648438 339.35533213 -589.64648438 339.35533213 -589.64648438 335.72216797 C-587.33349609 334.02734375 -587.33349609 334.02734375 -584.07617188 332.16748047 C-583.49263947 331.82993744 -582.90910706 331.49239441 -582.30789185 331.1446228 C-580.38482152 330.03515062 -578.45326063 328.94139916 -576.52148438 327.84716797 C-575.18095376 327.0768777 -573.84111465 326.30538284 -572.50195312 325.53271484 C-569.8062599 323.9784171 -567.10784907 322.42901665 -564.40722656 320.88330078 C-559.45770335 318.04553265 -554.55049842 315.13768974 -549.64648438 312.22216797 C-540.53486142 306.82616284 -531.40000283 301.47014716 -522.26220703 296.11865234 C-513.50359065 290.98876832 -504.75687803 285.83928908 -496.0222168 280.66870117 C-487.89723706 275.86248995 -479.75087286 271.09304026 -471.60415649 266.32382202 C-462.66387106 261.08895393 -453.74219857 255.82394023 -444.83398438 250.53466797 C-435.52721313 245.00992858 -426.19815264 239.52574044 -416.84448242 234.08081055 C-408.93585196 229.47702722 -401.03941364 224.8527917 -393.14648438 220.22216797 C-384.31967626 215.04425772 -375.48805197 209.87485484 -366.64648438 204.72216797 C-354.20187606 197.46898345 -341.77647212 190.18318904 -329.35205078 182.89550781 C-322.68231901 178.98344306 -316.01123684 175.07368132 -309.34039307 171.16351318 C-307.53225865 170.10365236 -305.72413347 169.04377581 -303.91601562 167.98388672 C-303.31889771 167.63386597 -302.72177979 167.28384521 -302.10656738 166.92321777 C-298.43096877 164.76853945 -294.7556961 162.61330624 -291.08065796 160.45767212 C-278.30634801 152.96478803 -265.52694586 145.48094256 -252.73193359 138.0234375 C-244.96777699 133.49659607 -237.211856 128.95579711 -229.45898438 124.40966797 C-228.85365875 124.0547226 -228.24833313 123.69977722 -227.62466431 123.33407593 C-223.29838635 120.79714487 -218.97240301 118.25971167 -214.64648438 115.72216797 C-209.70918433 112.8259936 -204.7717579 109.93003503 -199.83398438 107.03466797 C-199.22825592 106.6794809 -198.62252747 106.32429382 -197.9984436 105.95834351 C-188.93727694 100.64561277 -179.86999552 95.34345855 -170.79125977 90.06079102 C-165.78970125 87.14836864 -160.79592512 84.22347326 -155.81427002 81.27716064 C-153.12702635 79.68799465 -150.43801642 78.10182872 -147.74902344 76.515625 C-146.43721059 75.74052175 -145.1263268 74.96384383 -143.81640625 74.18554688 C-141.99379723 73.10273018 -140.16814974 72.02521679 -138.34179688 70.94873047 C-137.29008301 70.32562988 -136.23836914 69.7025293 -135.15478516 69.06054688 C-132.64648438 67.72216797 -132.64648438 67.72216797 -130.64648438 67.72216797 C-130.68128906 66.94615234 -130.71609375 66.17013672 -130.75195312 65.37060547 C-131.30837798 43.16660412 -123.07593032 23.67786526 -108.03710938 7.59570312 C-79.70336705 -21.52227672 -32.30409951 -25.0711235 0 0 Z M-71.31054688 50.81982422 C-75.12543052 56.25212929 -76.28113561 62.70271015 -75.24804688 69.24560547 C-73.17397516 77.17587969 -69.44550792 83.30073115 -62.39648438 87.65966797 C-55.83962736 90.89965594 -49.61032493 91.45909674 -42.52148438 89.72216797 C-35.6294371 87.32728991 -30.57885021 83.00867545 -27.20898438 76.53466797 C-24.03566368 69.54767039 -23.63076914 62.89850304 -26.20898438 55.65966797 C-29.47264099 48.23085519 -34.63050051 43.34099443 -42.19726562 40.38623047 C-54.01170688 37.18295294 -63.86771064 41.43765742 -71.31054688 50.81982422 Z " fill="#FF6D14" transform="translate(630.646484375,340.27783203125)"/>
</svg>
